<svg xmlns="http://www.w3.org/2000/svg" viewBox="0 0 400 350"><defs><style>.a{fill:none;}.b{fill:#fff;}.c{fill:#f14744;}</style></defs><title>アセット 1</title><rect class="a" width="400" height="350"/><path class="b" d="M98.9,262.31h2.71l2.76,5.31,1.09,2.46h.07a35,35,0,0,1-.36-4.1v-3.67h2.54v11.1H105l-2.74-5.35-1.09-2.43h-.07c.12,1.24.34,2.76.34,4.1v3.68H98.9Z"/><path class="b" d="M109.6,269.17a4.18,4.18,0,1,1,0,.25Q109.59,269.29,109.6,269.17Zm5.59,0c0-1.42-.45-2.31-1.43-2.31s-1.45.89-1.45,2.31.45,2.3,1.45,2.3,1.44-.9,1.44-2.3Z"/><path class="b" d="M119.37,272a1.58,1.58,0,1,1,0,.08S119.37,272,119.37,272Z"/><path class="b" d="M124.72,271.26h2.36V265h-2v-1.64a7.49,7.49,0,0,0,2.74-1h2v9h2v2.15h-7Z"/><path class="b" d="M150.75,264.16a6.7,6.7,0,0,0-.58,1.22,15.63,15.63,0,0,1-2.58,4.89,14.33,14.33,0,0,1-6.06,4.3l-2.15-1.91a12,12,0,0,0,6-3.67,9.55,9.55,0,0,0,2-3.73h-3.71a18.51,18.51,0,0,1-3.76,3.56l-2-1.51a13.52,13.52,0,0,0,4.64-4.67,7.75,7.75,0,0,0,.79-1.77l2.64.87c-.34.48-.7,1.09-.92,1.48h2.4a5.66,5.66,0,0,0,1.48-.19Z"/><path class="b" d="M165.2,266.34a5.69,5.69,0,0,0-.33.72,10.67,10.67,0,0,1-7.55,7.37l-1.8-2a10.23,10.23,0,0,0,5.13-2.55,5.85,5.85,0,0,0,1.39-2.16h-6.79c-.37,0-1.22,0-1.89.07v-2.33c.69.06,1.39.1,1.89.1h7.1a3.46,3.46,0,0,0,1.25-.18Zm-10.44-4.56a14.38,14.38,0,0,0,1.67.09h5.65a16.85,16.85,0,0,0,1.76-.09v2.33c-.42,0-1.22-.06-1.79-.06h-5.62a15,15,0,0,0-1.67.06Z"/><path class="b" d="M181,264.38a12.45,12.45,0,0,0-.33,1.34,13.89,13.89,0,0,1-1.36,4.09,9.58,9.58,0,0,1-6.19,4.62l-1.88-2.18a12.91,12.91,0,0,0,2.43-.69,7.19,7.19,0,0,0,3-2.28,8,8,0,0,0,1.27-3.55h-6.88v1.91a10.66,10.66,0,0,0,.06,1.22h-2.49c0-.43.07-1,.07-1.42v-2.57a10.6,10.6,0,0,0-.07-1.36,13.89,13.89,0,0,0,1.6.07h3.12v-1a7.91,7.91,0,0,0-.13-1.52H176a11,11,0,0,0-.12,1.52v1h2.18a4,4,0,0,0,1.36-.18Z"/><path class="b" d="M188.51,265.67a49.43,49.43,0,0,1,6.16,2.25l-1,2.52a46.29,46.29,0,0,0-5.13-2.13v3.83c0,.4.09,1.58.16,2.25h-2.83a16.73,16.73,0,0,0,.18-2.25v-8.52a10.4,10.4,0,0,0-.18-1.94h2.82a17.69,17.69,0,0,0-.15,1.94Zm3.67-.63a12.16,12.16,0,0,0-1.31-2.31l1.49-.63a22.81,22.81,0,0,1,1.36,2.27Zm2.13-.87a13.17,13.17,0,0,0-1.39-2.24l1.48-.69a18.61,18.61,0,0,1,1.4,2.19Z"/><path class="b" d="M210.34,263.47a7.44,7.44,0,0,0-.39,1.19,15.7,15.7,0,0,1-2.25,5.4,12.22,12.22,0,0,1-6.07,4.19l-2-2.16a9.76,9.76,0,0,0,5.86-3.44,8.39,8.39,0,0,0,1.64-3.85H200.6a15,15,0,0,0-1.94.07v-2.55c.46.06,1.45.13,1.94.13h6.58a6,6,0,0,0,1.37-.13Z"/><path class="b" d="M224.62,266a6.56,6.56,0,0,0-.52.69,19.3,19.3,0,0,1-2.94,3.57L219.39,269a6.34,6.34,0,0,1-3.57,6l-1.89-1.51a6.15,6.15,0,0,0,1.33-.72c1.51-1,1.83-2.18,1.83-4a5.67,5.67,0,0,0-.13-1.16h2.49a11,11,0,0,1-.06,1.43,8.37,8.37,0,0,0,1.89-2h-6.09a16.31,16.31,0,0,0-1.66.09v-2.3a12,12,0,0,0,1.66.14h6.65a8.41,8.41,0,0,0,1.45-.12Z"/><path class="b" d="M232.41,269.92a14.4,14.4,0,0,0,5.7-6l1.4,2.55a16.14,16.14,0,0,1-5.8,5.65,15.93,15.93,0,0,1-5.34,2l-1.54-2.39A15.32,15.32,0,0,0,232.41,269.92Zm.51-4.88-1.85,1.89a31.13,31.13,0,0,0-3.74-3.27l1.72-1.83a30.05,30.05,0,0,1,3.87,3.17Z"/><path class="b" d="M252.92,265.9a10.83,10.83,0,0,0,1.48-.1v2.34h-4.82a9.51,9.51,0,0,1-1,3.69,7.07,7.07,0,0,1-3,3l-2.12-1.52A5.49,5.49,0,0,0,247,268.1h-3.89a12.63,12.63,0,0,0-1.51.06V265.8a12.86,12.86,0,0,0,1.51.1Zm-7.84-1.7a16.38,16.38,0,0,0-1.73.06V262a13.62,13.62,0,0,0,1.73.12h4.73a13.1,13.1,0,0,0,1.52-.09,3.68,3.68,0,0,0-.24-.39l1.4-.57c.37.55.89,1.52,1.16,2l-1.42.6c-.19-.39-.45-.88-.7-1.34v1.94c-.55,0-1.16-.06-1.73-.06Zm9-1.27a16.71,16.71,0,0,0-1.18-2.06l1.4-.57a21.15,21.15,0,0,1,1.18,2Z"/><path class="b" d="M267.21,265.53a18.42,18.42,0,0,1-3.34,2.67V273a8.88,8.88,0,0,0,.12,1.79H261.3c0-.33.09-1.22.09-1.79v-3.46a22.56,22.56,0,0,1-3.94,1.49l-1.21-2a20,20,0,0,0,5.32-2,14.29,14.29,0,0,0,3.83-3.12Z"/><path class="b" d="M275.51,269.92a14.4,14.4,0,0,0,5.7-6l1.4,2.55a16.14,16.14,0,0,1-5.8,5.65,15.93,15.93,0,0,1-5.34,2l-1.54-2.39A15.33,15.33,0,0,0,275.51,269.92ZM276,265l-1.85,1.89a31.13,31.13,0,0,0-3.74-3.27l1.72-1.83A30.05,30.05,0,0,1,276,265Z"/><path class="b" d="M295.9,263.55l1.52.94a6.66,6.66,0,0,0-.58,1.22,15.63,15.63,0,0,1-2.58,4.89,14.34,14.34,0,0,1-6.06,4.3l-2.14-1.9a12,12,0,0,0,6-3.67,9.55,9.55,0,0,0,2-3.73h-3.71a18.49,18.49,0,0,1-3.76,3.56l-2-1.51A13.51,13.51,0,0,0,289.2,263a7.76,7.76,0,0,0,.79-1.77l2.64.87c-.34.48-.7,1.09-.92,1.48h2.4a5.79,5.79,0,0,0,1.37-.16,14.62,14.62,0,0,0-1-1.79l1.4-.57c.37.55.89,1.52,1.16,2Zm1.82-3.24a21.37,21.37,0,0,1,1.18,2l-1.4.6a16.64,16.64,0,0,0-1.18-2.06Z"/><path class="c" d="M248.06,304.48a.85.85,0,0,0,.84-.84h0a.85.85,0,0,0-.84-.84h-6.85a.85.85,0,0,0-.84.84h0v14.78a.85.85,0,0,0,.84.84h6.85a.85.85,0,0,0,.84-.84h0a.85.85,0,0,0-.84-.84h-6v-5.67h5.49a.85.85,0,0,0,.84-.84h0a.85.85,0,0,0-.84-.84h-5.49v-5.67Z"/><path class="c" d="M167.88,304.46a4.06,4.06,0,0,1,2.37.7c.36.23.55.39.87.39a.82.82,0,0,0,.84-.8h0c0-1.07-2.09-2-4.16-2-3.5,0-5.25,2.3-5.25,5.8v4.87c0,3.5,1.76,5.8,5.26,5.8,2.07,0,4.1-.89,4.1-2a.76.76,0,0,0-.72-.8h-.06c-.32,0-.41.16-.8.39a4.34,4.34,0,0,1-2.46.7c-2.57,0-3.6-1.59-3.6-4.14V308.6c0-2.55,1-4.14,3.61-4.14"/><path class="c" d="M206.9,302.8h-4.28a.85.85,0,0,0-.84.84v14.78a.85.85,0,0,0,.84.84h0a.85.85,0,0,0,.84-.84V311.9h3.41a4.55,4.55,0,1,0,0-9.1Zm0,7.43h-3.41v-5.76h3.41a2.88,2.88,0,0,1,0,5.76Z"/><path class="c" d="M199,303.48h0a.85.85,0,0,0,0-.13h0l-.05-.09v-.06l-.05-.06-.08-.07h0a.84.84,0,0,0-.29-.14h-.06a.84.84,0,0,0-.35,0h-.26l-.07,0h0l-.09.09h0a.84.84,0,0,0-.12.21l-4.63,9.7-4.63-9.7a.84.84,0,0,0-.12-.21h0l-.09-.09h0l-.07,0h-.26a.84.84,0,0,0-.35,0H187a.84.84,0,0,0-.29.14h0l-.08.07-.05.06v.06l-.05.09h0a.85.85,0,0,0,0,.13h0a.84.84,0,0,0,0,.24v14.7a.85.85,0,0,0,.84.84h0a.85.85,0,0,0,.84-.84v-11l3.79,7.93a.84.84,0,0,0,.77.48h0a.84.84,0,0,0,.77-.48l3.79-7.93v11a.85.85,0,0,0,.84.84h0a.85.85,0,0,0,.84-.84v-14.7A.84.84,0,0,0,199,303.48Z"/><path class="c" d="M238.22,318l-3.57-6.19a4.54,4.54,0,0,0-1-9h-4.28a.85.85,0,0,0-.84.84v14.78a.85.85,0,0,0,.84.84h0a.85.85,0,0,0,.84-.84V311.9h2.48l4,6.94a.85.85,0,0,0,1.15.31h0a.85.85,0,0,0,.39-1.14Zm-8-13.52h3.41a2.88,2.88,0,1,1,0,5.76h-3.41Z"/><path class="c" d="M221.2,302.77h-6.85a.85.85,0,0,0-.84.84h0v14.78a.85.85,0,0,0,.84.84h0a.85.85,0,0,0,.84-.84v-6.55h5.49a.85.85,0,0,0,.84-.84h0a.85.85,0,0,0-.84-.84h-5.49v-5.67h6a.85.85,0,0,0,.84-.84h0a.85.85,0,0,0-.82-.88Z"/><path class="c" d="M184.32,318.18l-4.57-14.8a.84.84,0,0,0-.74-.59h-.15a.84.84,0,0,0-.74.59l-4.57,14.8a.84.84,0,0,0,.56,1,.85.85,0,0,0,1.05-.55l1-3.26h5.53l1,3.26a.85.85,0,0,0,1.05.55A.84.84,0,0,0,184.32,318.18Zm-7.62-4.48,2.24-7.25,2.24,7.25Z"/><path class="c" d="M224.87,302.8a.86.86,0,0,0-.86.86V318.4a.86.86,0,1,0,1.72,0V303.66a.86.86,0,0,0-.86-.86Z"/><path class="c" d="M159,314.73h-.22a1,1,0,0,1-.8-1,3.29,3.29,0,0,1,.3-1,6.24,6.24,0,0,0,.25-1.14,4.64,4.64,0,0,0-1.19-4c-.82-.82-2-1.24-2.7-2.15a4,4,0,0,1-.66-1.3c0-.09-.21-.82-.29-1.21a.16.16,0,0,0-.27-.09,3.76,3.76,0,0,0-.69,1.32,4.44,4.44,0,0,0,.18,3.15v.1h0c0,.06.24.41.47.85h0c.47.93,1,2.17,0,2.94a.88.88,0,0,1-1.22-.06,1.3,1.3,0,0,1-.31-.94,3.86,3.86,0,0,1,.21-1l.1-.3a.16.16,0,0,0-.22-.19,4.2,4.2,0,0,0-.46.27,5.53,5.53,0,1,0,6.63,8.79,5.45,5.45,0,0,0,1.75-3.19.16.16,0,0,0-.26-.14,1.07,1.07,0,0,1-.65.25"/><path class="b" d="M154.54,313.35a1,1,0,0,1,.61.18.39.39,0,0,0,.22.1.21.21,0,0,0,.22-.2h0c0-.27-.52-.5-1-.5-.9,0-1.33.59-1.33,1.48v1.25c0,.9.44,1.48,1.33,1.48.53,0,1-.23,1-.5a.2.2,0,0,0-.2-.2h0c-.08,0-.11,0-.21.1a1.11,1.11,0,0,1-.63.18c-.66,0-.92-.41-.92-1.06v-1.25c0-.65.26-1.06.92-1.06"/><path class="b" d="M84.64,111.77v4.42H72.09v2.46H66.94v-2.46H53.5v2.46H48.4v-2.46H36.09v-4.42H48.41v-3.42h5.1v3.42H66.94v-3.42h5.15v3.42ZM36.2,134.11H84.58v9.46h-5.1v-5.49H59.66A25.26,25.26,0,0,1,57,140.94H71.31l.9-.17,3.3,1.79c-5.82,10.47-19.38,15.29-33,17.3a15.58,15.58,0,0,0-2.3-4.37A71,71,0,0,0,55.91,152a46.93,46.93,0,0,0-8.29-4.54,50.36,50.36,0,0,1-6,2.58,13.64,13.64,0,0,0-3.14-3.58c6.94-2.13,12-5.21,15.12-8.34H41.07v5.49H36.2Zm44.3-14.5v11.87h-40V119.61Zm-28.34,3.53h-7V128h7Zm.34,21.5-.67.45A45.9,45.9,0,0,1,60.61,150a25.11,25.11,0,0,0,7.45-5.32Zm11.37-21.5H56.53V128h7.34Zm11.7,0H68.23V128h7.34Z"/><path class="b" d="M134.59,154.33c2.18,0,2.52-.9,2.74-7.67a14.67,14.67,0,0,0,4.87,2.13c-.62,8.4-2.07,10.47-7.11,10.47H126.8c-5.88,0-7.34-1.57-7.34-6.83V142.29H111.4c-1.29,8.9-4.76,14.62-17.86,17.58a16.11,16.11,0,0,0-3-4.59c11.48-2.24,14.22-6.33,15.29-13H98.64V110.2h35.62v32.09H124.8v10.14c0,1.68.39,1.9,2.63,1.9Zm-30.91-34.78H129v-4.7H103.68Zm0,9H129V123.8H103.68Zm0,9.13H129v-4.82H103.68Z"/><path class="b" d="M186.84,116.69c-1.12.73-2.41,1.57-3.42,2.3-2.86,2-9.58,7.9-13.5,11.14a20.65,20.65,0,0,1,6.55-1c9.3,0,16.18,5.71,16.18,13.44,0,8.9-7.11,15.23-19.54,15.23-7.67,0-12.82-3.47-12.82-8.46,0-4.09,3.75-7.9,9.18-7.9,6.89,0,10.86,4.42,11.65,9.74a9.06,9.06,0,0,0,5.82-8.68c0-5.21-5.26-8.9-12-8.9-8.85,0-14.11,4.14-20.66,11.09l-4.09-4.14c4.31-3.53,11.26-9.35,14.5-12,3.08-2.58,9.46-7.9,12.26-10.3-2.91.11-12.38.5-15.29.67-1.4.11-2.86.22-4.09.39l-.17-5.77a39.94,39.94,0,0,0,4.42.28c2.91,0,15.46-.34,18.48-.62a19.62,19.62,0,0,0,3.53-.56ZM176,152.59c-.45-4.09-2.86-6.78-6.55-6.78-2.3,0-4,1.34-4,3.08,0,2.41,2.86,3.92,6.61,3.92A29,29,0,0,0,176,152.59Z"/><path class="b" d="M230.57,109.86c-.06.78-.06,1.74-.17,2.74.5,7.45,3.42,32.59,24.36,42.22a16.86,16.86,0,0,0-4,4.37C237.24,152.64,231,139.82,228.11,129c-2.69,10.7-8.57,22.79-21.56,30.24a17.8,17.8,0,0,0-4.31-4.09c22.4-11.93,22.06-37.91,22.46-45.3Z"/><path class="b" d="M284.89,147.55c.17-1.9.22-5,.22-7.78-4.7,2.63-7.67,5.15-7.67,8.4,0,3.81,3.58,4.54,9.18,4.54a93.43,93.43,0,0,0,15.4-1.46l-.17,5.66a141.09,141.09,0,0,1-15.4,1c-8.29,0-14.73-1.9-14.73-8.79s6.66-11.14,13-14.39c-.67-2-2.46-2.74-4.48-2.74a14.08,14.08,0,0,0-9.18,4,59.69,59.69,0,0,0-5.1,5.94l-4.76-3.58c6.5-6.16,10.25-11.54,12.54-16.18h-1.62c-2.3,0-6.16-.11-9.24-.34v-5.21a81.4,81.4,0,0,0,9.52.62h3.25a33.51,33.51,0,0,0,1.29-6.66l5.77.45c-.34,1.46-.78,3.58-1.57,6a128.06,128.06,0,0,0,16.41-1.62v5.15a169.43,169.43,0,0,1-18.2,1.44,40.53,40.53,0,0,1-4.2,7.22,16.33,16.33,0,0,1,7.06-1.62c3.47,0,6.33,1.62,7.39,4.7,3.42-1.62,6.27-2.8,8.9-4,1.85-.84,3.47-1.57,5.26-2.46L306,131c-1.51.45-3.92,1.34-5.6,2-2.86,1.06-6.44,2.58-10.3,4.37.06,3.14.17,7.56.22,10.19Z"/><path class="b" d="M327.17,158.75A102.26,102.26,0,0,0,315,146.37l4.59-4A103.3,103.3,0,0,1,332,154.75Z"/><path class="b" d="M47.45,178.55a36.59,36.59,0,0,0-1.12,4.26c-1,4.48-2.69,16-2.69,22a41.22,41.22,0,0,0,.39,5.82c.78-2.3,2-5,2.8-7l2.86,2.24c-1.46,4.14-3.36,9.8-4,12.66a13.36,13.36,0,0,0-.28,2.52c.06.56.06,1.4.11,2.07l-4.93.34a65.93,65.93,0,0,1-2.18-17.58c0-8.29,1.79-18.82,2.46-23.24.17-1.4.39-3.14.45-4.59Zm35.22,41a48.25,48.25,0,0,0-7.67-6v.17c0,5.15-2.46,9.52-10.19,9.52-7.5,0-11.87-3.14-11.87-8.46,0-5.1,4.42-8.9,11.82-8.9a28.47,28.47,0,0,1,4.48.34c-.17-3.86-.39-8.62-.5-12.94-1.57.06-3.14.11-4.7.11-3.19,0-6.22-.17-9.46-.34l-.06-5.26c3.19.28,6.27.45,9.58.45,1.57,0,3.08-.06,4.65-.11,0-2.74-.06-5.1-.06-6.5a19.73,19.73,0,0,0-.34-3.53h6.33c-.17,1.12-.28,2.3-.34,3.42-.06,1.4-.11,3.75-.17,6.27a86.75,86.75,0,0,0,9.18-1.23V192c-2.86.45-6,.78-9.18,1,.11,5.54.45,10.53.62,14.78A36.71,36.71,0,0,1,85.65,215Zm-13.22-8.62a19.72,19.72,0,0,0-5.15-.73c-3.7,0-6.22,1.62-6.22,3.92,0,2.58,2.46,3.86,6,3.86,4.09,0,5.38-2.07,5.38-5.54Z"/><path class="b" d="M107.37,177.88c-.28,2-.5,4.37-.62,6.33-.22,6.16-.67,18.93-.67,26.66,0,5.82,3.7,7.84,8.46,7.84,9.74,0,15.51-5.49,19.49-11.42l4,4.87a28.23,28.23,0,0,1-23.58,12.43c-8.46,0-14.06-3.64-14.06-12.82,0-7.9.56-22.18.56-27.55a31.65,31.65,0,0,0-.62-6.38Zm20.33,13.38-4,1.74a59.76,59.76,0,0,0-5.21-9.07l3.92-1.68a81.38,81.38,0,0,1,5.29,9Zm7.56-3.19-4,1.9a61.93,61.93,0,0,0-5.38-8.85l3.86-1.79a86.5,86.5,0,0,1,5.52,8.74Z"/><path class="b" d="M182.47,177.93c-.39,1.4-.84,3.64-1.12,4.87-.22,1-.45,2-.73,3,8.79,1.74,14.78,8.68,14.78,18.26,0,11.37-8.12,18.14-19.82,19.82l-3.36-5c11.82-1.06,17.53-7.17,17.53-15,0-6.78-4-11.82-10.42-13.16-2,6.78-4.65,13.61-7.84,18.31a29.45,29.45,0,0,0,3.25,3.64l-4.42,3.58c-.78-.9-1.57-1.79-2.3-2.74-3.53,4.09-6.83,6.44-10.92,6.44-4.42,0-8.23-3.64-8.23-10.47,0-6.33,3.36-13,8.4-17.3-.62-1.62-1.12-3.25-1.62-4.82a34.3,34.3,0,0,0-2-5.38l5.82-1.79c.34,1.62.78,3.47,1.18,5.1.34,1.18.73,2.52,1.18,3.86a28.81,28.81,0,0,1,13.5-3.7c.28-1.18.56-2.3.73-3.36a27,27,0,0,0,.34-4.7ZM164.21,208a63.63,63.63,0,0,1-5.1-10.81A18,18,0,0,0,154,209c0,3.25,1.34,5.26,3.64,5.26s4.93-2.24,7.22-5.21Zm4-3.81A68.57,68.57,0,0,0,174,190.31a22.65,22.65,0,0,0-10.58,3.53,56.19,56.19,0,0,0,4.26,9.52Z"/><path class="b" d="M242.84,182.69c-1.12.73-2.41,1.57-3.42,2.3-2.86,2-9.58,7.9-13.5,11.14a20.64,20.64,0,0,1,6.55-1c9.3,0,16.18,5.71,16.18,13.44,0,8.9-7.11,15.23-19.54,15.23-7.67,0-12.82-3.47-12.82-8.46,0-4.09,3.75-7.9,9.18-7.9,6.89,0,10.86,4.42,11.65,9.74a9.06,9.06,0,0,0,5.82-8.68c0-5.21-5.26-8.9-12-8.9-8.85,0-14.11,4.14-20.66,11.09l-4.09-4.14c4.31-3.53,11.26-9.35,14.5-12,3.08-2.58,9.46-7.9,12.26-10.3-2.91.11-12.38.5-15.29.67-1.4.11-2.86.22-4.09.39l-.17-5.77a39.92,39.92,0,0,0,4.42.28c2.91,0,15.46-.34,18.48-.62a19.62,19.62,0,0,0,3.53-.56ZM232,218.59c-.45-4.09-2.86-6.78-6.55-6.78-2.3,0-4,1.34-4,3.08,0,2.41,2.86,3.92,6.61,3.92A29,29,0,0,0,232,218.59Z"/><path class="b" d="M286.57,175.86c-.06.78-.06,1.74-.17,2.74.5,7.45,3.42,32.59,24.36,42.22a16.85,16.85,0,0,0-4,4.37C293.24,218.64,287,205.82,284.11,195c-2.69,10.7-8.57,22.79-21.56,30.24a17.84,17.84,0,0,0-4.31-4.09c22.4-11.93,22.06-37.91,22.46-45.3Z"/><path class="b" d="M328.07,179a34.48,34.48,0,0,0-1.18,4.26c-1,4.54-2.74,15-2.74,20.89a41.21,41.21,0,0,0,.39,5.82c.84-2.24,2-4.93,2.8-6.94l2.91,2.24a109.81,109.81,0,0,0-4,12.94,10.23,10.23,0,0,0-.28,2.52c0,.56.06,1.4.11,2.07l-5,.34A69.25,69.25,0,0,1,319,205.22c0-8.29,1.79-17.7,2.41-22.12a40.88,40.88,0,0,0,.5-4.59Zm12.77,27.1a21,21,0,0,0-.67,4.93c0,2.52,1.85,4.48,8.57,4.48A62.33,62.33,0,0,0,362.57,214l.11,5.94a75,75,0,0,1-14.06,1.12c-9.41,0-13.78-3.25-13.78-8.62a33.93,33.93,0,0,1,1-6.83Zm20.1-23.1v5.71a140.1,140.1,0,0,1-23.24,0V183C344,184,355.17,183.76,360.94,183Z"/><path class="b" d="M387.93,216.35a8.71,8.71,0,1,1,0-.11S387.93,216.31,387.93,216.35Zm-3.36,0a5.38,5.38,0,1,0-5.38,5.38,5.38,5.38,0,0,0,5.38-5.38Z"/></svg>